
<svg xmlns="http://www.w3.org/2000/svg" width="24" height="24" viewBox="0 0 24 24" fill="none">
  <circle cx="12" cy="12" r="12" fill="#3c9142"/>
  <path d="M19.735 10.147C19.7455 10.0965 19.75 10.046 19.75 10.0007C19.75 9.95549 19.7451 9.90537 19.7351 9.85494C19.7152 9.75444 19.6805 9.65979 19.634 9.57514C19.5876 9.49049 19.5244 9.41433 19.4486 9.35022C19.373 9.28612 19.2865 9.2352 19.193 9.2C19.0994 9.16479 19 9.15079 18.9051 9.15872C18.67 9.17012 18.4909 9.2875 18.376 9.45451C17.9609 10.0623 17.4911 10.6264 16.9749 11.1388C16.46 11.6475 15.9004 12.1074 15.302 12.51C15.0026 12.7257 14.6592 12.8723 14.2973 12.9379C13.9355 13.0036 13.5647 12.9868 13.212 12.8888C12.8593 12.7908 12.5343 12.6142 12.2613 12.3729C11.9884 12.1317 11.7748 11.8324 11.6384 11.5C11.4244 10.9211 11.4244 10.2789 11.6384 9.7C11.7694 9.36956 11.9783 9.07345 12.2471 8.8389C12.516 8.60436 12.8379 8.43819 13.1877 8.35608C13.5375 8.27397 13.9043 8.27878 14.2518 8.37007C14.5994 8.46136 14.9154 8.63665 15.1765 8.88003C15.2071 8.90634 15.2387 8.93196 15.2711 8.95685C15.31 8.98654 15.3509 9.01419 15.3936 9.03964C15.437 9.06551 15.4823 9.08867 15.5288 9.10899C15.5753 9.12924 15.6226 9.14623 15.6704 9.15991C15.7641 9.18077 15.8617 9.18467 15.9566 9.17141C16.0481 9.15879 16.1357 9.13079 16.214 9.08914C16.2924 9.04755 16.3621 8.99166 16.4193 8.92439C16.4764 8.85712 16.5201 8.77876 16.5482 8.69375C16.5763 8.60767 16.5877 8.51606 16.5817 8.42469C16.5755 8.33347 16.5517 8.24464 16.5119 8.16197C16.4722 8.07944 16.4169 8.00433 16.3492 7.94046C16.2814 7.87659 16.2021 7.82481 16.1156 7.78779C15.6366 7.5574 15.1171 7.42347 14.5833 7.39452C14.0494 7.36557 13.5144 7.44225 13.0098 7.62018C12.5053 7.79812 12.041 8.07368 11.6466 8.43307C11.2522 8.79247 10.936 9.22802 10.7164 9.71379C10.3568 10.5261 10.3568 11.4539 10.7164 12.2662C10.9264 12.7783 11.2482 13.2335 11.6549 13.5934C12.0616 13.9533 12.5415 14.2074 13.061 14.3348C13.5805 14.4622 14.1223 14.4594 14.6404 14.3267C15.1585 14.194 15.6358 13.9348 16.0391 13.5705C16.5267 13.1152 16.9738 12.6173 17.3764 12.084C17.4945 11.9345 17.5869 11.7679 17.6508 11.5894C17.7147 11.4108 17.7493 11.2229 17.7534 11.0333C17.7576 10.8438 17.7314 10.6547 17.6754 10.4738C17.6196 10.293 17.5358 10.123 17.4255 9.97C17.3154 9.81701 17.1797 9.68359 17.0241 9.57584C16.8685 9.46703 16.6939 9.38452 16.5094 9.33111C16.325 9.27771 16.1341 9.25615 15.9446 9.26624C15.755 9.27634 15.5691 9.31801 15.3942 9.38907C15.2545 9.44732 15.1256 9.52504 15.0116 9.61957C14.8976 9.7141 14.8001 9.82401 14.7223 9.94526C14.5654 10.1893 14.4822 10.4702 14.4822 10.7566C14.4822 11.0431 14.5654 11.3239 14.7223 11.568C14.8096 11.7052 14.9221 11.8255 15.0537 11.9227C15.1853 12.0198 15.3335 12.0918 15.4903 12.135C15.647 12.1783 15.81 12.192 15.9723 12.1755C16.1346 12.159 16.2929 12.1125 16.439 12.0383C16.742 11.8768 17.0146 11.6637 17.2437 11.4099C17.4728 11.156 17.6547 10.8655 17.7818 10.55C17.8504 10.371 17.8885 10.1824 17.8944 9.9915C17.9003 9.80057 17.8738 9.6091 17.8159 9.42625C17.8039 9.3864 17.7889 9.34516 17.7713 9.30345C17.7533 9.26126 17.7318 9.21885 17.7068 9.17649C17.6818 9.13413 17.653 9.09138 17.6216 9.04905C17.5902 9.00671 17.5555 8.96478 17.5185 8.92377C17.4814 8.88276 17.4412 8.84311 17.3985 8.80505C17.3557 8.76698 17.3105 8.73057 17.2635 8.69632C17.2156 8.66131 17.1652 8.62824 17.1124 8.598C17.0595 8.56775 17.0044 8.53934 16.9475 8.51322C16.8337 8.46099 16.7115 8.42555 16.5864 8.40822C16.4609 8.3908 16.3336 8.3918 16.2086 8.4112C16.0837 8.43061 15.9619 8.4683 15.8487 8.5228C15.7356 8.5773 15.6331 8.64784 15.5446 8.73167C15.4566 8.81502 15.3827 8.91135 15.326 9.01738C15.2694 9.12346 15.2304 9.23826 15.2105 9.35735C15.1906 9.47644 15.19 9.59839 15.2086 9.71792C15.2275 9.83745 15.2657 9.953 15.3212 10.0602C15.3773 10.1673 15.4507 10.2648 15.5382 10.3493C15.6262 10.434 15.7281 10.5047 15.8395 10.5594C15.9508 10.614 16.0702 10.6517 16.193 10.6715C16.2544 10.6813 16.3166 10.6863 16.3789 10.6863C17.2845 10.6864 18.147 10.335 18.822 9.7C18.8901 9.63768 18.9456 9.56417 18.9866 9.48267C19.0274 9.40117 19.0533 9.31272 19.0626 9.22158C19.0725 9.14943 19.069 9.07643 19.0525 9.00575C19.0455 8.97039 19.035 8.93551 19.0214 8.90131C19.0077 8.86711 18.9908 8.83367 18.9713 8.80134C18.9518 8.76895 18.9295 8.73775 18.9049 8.70811C18.8804 8.67846 18.8533 8.65039 18.8242 8.62431C18.7659 8.57213 18.6958 8.52914 18.6183 8.49819C18.5407 8.46723 18.4566 8.44856 18.3717 8.44325C18.2868 8.43794 18.2013 8.44608 18.1203 8.46738C18.0392 8.48867 17.9645 8.52271 17.8996 8.56757C17.8346 8.61242 17.7809 8.66722 17.7388 8.72926C17.6981 8.78792 17.6691 8.85217 17.653 8.91935C17.6368 8.98653 17.634 9.05572 17.6444 9.12359C17.6552 9.19229 17.6794 9.25875 17.7157 9.32028C17.7519 9.3818 17.8 9.4375 17.8577 9.48431C18.2521 9.83601 18.5689 10.2656 18.7884 10.7462V10.7463C18.8429 10.8636 18.9202 10.9646 19.0141 11.0405C19.108 11.1164 19.2162 11.1654 19.3313 11.1837C19.4465 11.202 19.5649 11.189 19.6747 11.1456C19.7845 11.1021 19.8824 11.0297 19.9594 10.935C20.0589 10.8127 20.112 10.6605 20.1106 10.5044C20.1093 10.3482 20.0535 10.1969 19.951 10.0762L19.951 10.076L19.95 10.075L19.949 10.0741C19.8815 9.99448 19.8003 9.92743 19.7094 9.87632C19.6185 9.82522 19.5195 9.79098 19.4173 9.77533C19.3151 9.75968 19.2112 9.76293 19.1098 9.78496C19.0085 9.807 18.9116 9.84746 18.8237 9.90418C18.7358 9.96091 18.6587 10.0328 18.5961 10.1165C18.5336 10.2002 18.4871 10.2941 18.4581 10.3939C18.4291 10.4937 18.4182 10.5973 18.4261 10.7002C18.4339 10.8032 18.4603 10.9038 18.504 10.9968C18.5592 11.1173 18.6435 11.2229 18.7494 11.3033C18.8754 11.3997 19.0249 11.4588 19.1815 11.4741C19.3381 11.4895 19.496 11.4604 19.636 11.3905C19.776 11.3205 19.8919 11.2128 19.9701 11.0795C20.0482 10.9461 20.0851 10.7923 20.0763 10.6383C20.0674 10.4842 20.0132 10.3359 19.9198 10.2139C19.8263 10.0919 19.7 10.0022 19.5578 9.95358C19.5058 9.93404 19.4505 9.92128 19.3941 9.91564C19.3376 9.91 19.2819 9.91156 19.2267 9.92029C19.1717 9.92903 19.1177 9.94481 19.0663 9.9673C19.0153 9.98987 18.9669 10.0189 18.9219 10.0541C18.8769 10.0893 18.8358 10.13 18.7994 10.1753C18.763 10.2206 18.7318 10.2701 18.7063 10.3227C18.6812 10.3753 18.6624 10.4304 18.6504 10.4869C18.6262 10.5973 18.6277 10.7113 18.6549 10.8208C18.682 10.9303 18.734 11.0323 18.8065 11.1184C18.8791 11.2045 18.9705 11.2725 19.0728 11.3168C19.1752 11.3611 19.2858 11.3803 19.3961 11.3732C19.5063 11.3661 19.6128 11.333 19.7067 11.2767C19.8007 11.2204 19.88 11.1429 19.9386 11.05C19.9972 10.957 20.0333 10.8512 20.0437 10.7409C20.0541 10.6306 20.0384 10.5191 19.9975 10.4154C19.9566 10.3117 19.8917 10.2197 19.8073 10.147C19.783 10.1234 19.7567 10.1023 19.7285 10.0841C19.7003 10.0659 19.6704 10.0509 19.6395 10.0394C19.609 10.0279 19.5763 10.02 19.5432 10.016C19.5105 10.012 19.4768 10.012 19.444 10.016C19.4112 10.0199 19.3777 10.0279 19.3472 10.0394C19.3163 10.0509 19.2865 10.0658 19.2584 10.0841C19.2302 10.1023 19.2041 10.1233 19.18 10.147C19.1279 10.1972 19.0911 10.2617 19.0732 10.3328C19.0552 10.4039 19.0568 10.4786 19.0778 10.5488C19.0987 10.619 19.1384 10.6818 19.1927 10.7296C19.2469 10.7775 19.3136 10.8086 19.386 10.8197C19.4584 10.8307 19.5329 10.8213 19.6006 10.7923C19.6684 10.7633 19.7264 10.7156 19.7679 10.655C19.8101 10.5943 19.8348 10.523 19.839 10.4493C19.8431 10.3755 19.8267 10.3019 19.7914 10.2377C19.7561 10.1735 19.7033 10.1212 19.639 10.0874C19.5746 10.0537 19.5014 10.0397 19.4285 10.0468C19.3555 10.054 19.2861 10.0821 19.2284 10.1279C19.2061 10.1463 19.1866 10.1679 19.17 10.1922C19.1536 10.2164 19.1406 10.2427 19.1315 10.2702C19.1219 10.2983 19.1171 10.3278 19.1171 10.3576C19.1171 10.3874 19.1217 10.4168 19.131 10.4451C19.14 10.4734 19.1536 10.4995 19.1711 10.5232C19.1886 10.5466 19.209 10.5672 19.2319 10.5841C19.278 10.6183 19.3337 10.6369 19.3912 10.6376C19.4488 10.6382 19.5049 10.6208 19.5518 10.5877C19.5753 10.5712 19.5961 10.551 19.6131 10.5279C19.63 10.5048 19.643 10.4792 19.6515 10.4519C19.668 10.3967 19.6666 10.3381 19.6473 10.2837C19.628 10.2292 19.5916 10.1818 19.544 10.1477C19.5201 10.1309 19.4941 10.1178 19.4666 10.1088C19.4389 10.0999 19.4101 10.0955 19.381 10.0958C19.3521 10.0962 19.3234 10.1013 19.2962 10.1109C19.2689 10.1205 19.2434 10.1343 19.2203 10.1517C19.1736 10.1868 19.1385 10.2347 19.1201 10.2895C19.1016 10.3442 19.1006 10.403 19.1171 10.4584C19.1266 10.4867 19.1407 10.5131 19.1587 10.5367C19.1765 10.5602 19.1983 10.5801 19.2228 10.5958C19.2474 10.6116 19.2744 10.623 19.3027 10.6287C19.3311 10.6345 19.3602 10.6347 19.3888 10.6293C19.3904 10.6291 19.3921 10.6288 19.3938 10.6285C19.6326 10.5944 19.8638 10.517 20.0777 10.3997C20.0777 10.3997 20.0777 10.3997 20.0776 10.3997C20.1559 10.3511 20.2219 10.2864 20.2712 10.2099C20.3205 10.1335 20.3522 10.0471 20.3644 9.95697C20.3766 9.86685 20.369 9.77513 20.3422 9.68826C20.3155 9.60146 20.2701 9.52181 20.2093 9.45476C20.0795 9.31107 19.9069 9.21071 19.7163 9.16948C19.5256 9.12826 19.3267 9.14806 19.1486 9.22578C18.9704 9.30356 18.8233 9.43544 18.7302 9.60236C18.6371 9.76928 18.6027 9.96177 18.6318 10.149C18.6608 10.3363 18.7516 10.5077 18.8896 10.637C19.0277 10.7664 19.2053 10.8467 19.3946 10.8645Z" fill="white"/>
</svg>
