
<svg xmlns="http://www.w3.org/2000/svg" width="24" height="24" viewBox="0 0 24 24" fill="none" stroke="currentColor" stroke-width="2" stroke-linecap="round" stroke-linejoin="round">
  <path d="M12 2a9.96 9.96 0 0 0 7.5 3H20a2 2 0 0 1 2 2v2a2 2 0 0 1-2 2h-.5c-2.79 0-5.57-.75-8-2.17A16.83 16.83 0 0 0 3.5 11H3a2 2 0 0 1-2-2V7a2 2 0 0 1 2-2h.5A9.96 9.96 0 0 0 12 2Z"></path>
  <path d="M20 22V16a2 2 0 0 0-2-2h-1a4 4 0 0 0-4 4v4"></path>
  <path d="M7 22v-4a2 2 0 0 1 2-2h1a4 4 0 0 1 4 4v2"></path>
</svg>
